<?xml version="1.0" encoding="utf-8"?>
<!-- Generator: Adobe Illustrator 16.0.3, SVG Export Plug-In . SVG Version: 6.00 Build 0)  -->
<!DOCTYPE svg PUBLIC "-//W3C//DTD SVG 1.1//EN" "http://www.w3.org/Graphics/SVG/1.1/DTD/svg11.dtd">
<svg version="1.1" id="Layer_1" xmlns="http://www.w3.org/2000/svg" xmlns:xlink="http://www.w3.org/1999/xlink" x="0px" y="0px"
	 width="595.279px" height="391px" viewBox="0 0 595.279 391" enable-background="new 0 0 595.279 391" xml:space="preserve">
<rect x="0" fill="#FFFFFF" width="595.279" height="391"/>
<path fill="none" stroke="#000000" stroke-miterlimit="10" d="M441,299c-1.412,19.922-26.299,50.676-47.352,52.699
	c-18.88,1.814-36.443-19.721-46.959-33.107c-17.584-22.383-11.404-51.406,9.377-69.38c25.405-21.973,62.778-33.287,96.314-27.163
	c15.224,2.78,31.928,9.924,45.841,16.596c12.922,6.194,25.509,18.084,31.729,31.231c10.388,21.951,5.749,45.408-9.377,63.077
	c-22.896,26.748-75.53,34.941-102.942,11.218c-1.72-1.487-2.729-3.174-4.634-4.503"/>
<path fill="none" stroke="#000000" stroke-miterlimit="10" d="M280.333,180.333c-13.231,0.056-23.337-1.159-32.386-11.768
	c-4.019-4.711-5.789-14.738-10.883-18.261c-6.48-4.483-13.706,3.095-20.081,4.856c-8.694,2.403-13.676,0.212-20.401-6.049
	c-4.443-4.136-8.908-9.741-11.447-15.31c-1.293-2.835-0.784-7.072-2.12-9.484c-1.503-2.714-3.866-2.833-6.164-4.935
	c-6.202-5.673-5.893-12.656-3.025-19.733c9.139-22.565,30.139-27.663,53.091-28.682c19.321-0.857,29.246-7.263,41.419-22.471
	c8.925-11.15,27.537-27.92,42.108-16.712c8.37,6.438,10.45,15.179,11.74,25.25c0.619,4.828-0.312,13.376,3.434,17.312
	c9.593,10.081,24.265-6.94,34.078-1.098c7.162,4.264,6.606,26.16,8.49,33.733c1.191,4.786,2.081,11.22,4.632,15.549
	c1.982,3.363,6.082,5.08,7.71,8.569c4.422,9.472-11.134,28.834-19.497,33.415c-7.989,4.377-17.609,1.217-26.181,2.632
	c-8.191,1.352-8.869,7.924-15.004,11.365c-5.596,3.138-16.828,1.826-23.329,1.82c-10.611-0.01-21.087-2.528-30.852,1.333"/>
<path fill="none" stroke="#000000" stroke-miterlimit="10" d="M155,239c-1.85,8.432-13.691,15.482-19.372,21.34
	c-13.547,13.967-28.143,27.662-40.28,42.879c-7.082,8.879-13.503,19.188-17.744,29.692c11.94,1.067,26.578-2.597,38.394-4.161
	c25.166-3.334,50.627-8.113,76.092-8.512c9.795-0.151,19.354,1.842,29.052,2.941c4.527,0.514,9.493,0.313,12.934,3.62
	c0.041-3.471-2.22-6.385-4.53-9.429c-9.85-12.975-21.303-25.278-31.996-37.637c-5.973-6.901-11.276-13-17.993-18.981
	c-7.164-6.38-13.146-19.261-21.888-23.089"/>
<path fill="none" stroke="#000000" stroke-miterlimit="10" d="M258.333,228.333c0.034,5.033-2.498,9.536-0.714,14.581
	c6.084-0.418,12.314-2.211,18.613-0.667c0.244-5.272-1.108-10.011-0.7-15.179c-5.42,4.134-13.271,0.631-17.865,0.598"/>
<path fill="none" stroke="#000000" stroke-miterlimit="10" d="M267.667,228.333c-9.571-11.819,1.375-35.725,1.333-48.667"/>
<path fill="none" stroke="#000000" stroke-miterlimit="10" d="M257,235c-4.28,5.018-16.607,5.732-22.701,9.838
	c-7.135,4.807-13.25,11.928-20.114,16.732c-5.647,3.955-12.483,14.724-19.185,16.763"/>
<path fill="none" stroke="#000000" stroke-miterlimit="10" d="M275.667,233.667c3.122,4.414,14.969,7.785,20.833,10.147
	c6.973,2.812,13.896,5.891,20.481,9.021c8.512,4.047,18.269,7.938,26.687,10.83"/>
<text transform="matrix(1 0 0 1 195.9998 122)" font-family="'MyriadPro-Regular'" font-size="18">Conscious experience</text>
<text transform="matrix(1 0 0 1 390.9993 289.2871)" font-family="'MyriadPro-Regular'" font-size="18">Brain activity</text>
<text transform="matrix(1 0 0 1 120.262 295.2871)" font-family="'MyriadPro-Regular'" font-size="18">Theory of</text>
<text transform="matrix(1 0 0 1 100.886 316.8867)" font-family="'MyriadPro-Regular'" font-size="18">Consciousness</text>
</svg>
